HIERARCHY
ROOT Hips
{
	OFFSET 0.000000 0.000000 0.000000
	CHANNELS 6 Xposition Yposition Zposition Zrotation Yrotation Xrotation 
	JOINT LHipJoint
	{
		OFFSET 0.000000 0.000000 0.000000
		CHANNELS 3 Zrotation Yrotation Xrotation
		JOINT LeftUpLeg
		{
			OFFSET 1.363060 -1.794630 0.839290
			CHANNELS 3 Zrotation Yrotation Xrotation
			JOINT LeftLeg
			{
				OFFSET 2.448110 -6.726130 0.000000
				CHANNELS 3 Zrotation Yrotation Xrotation
				JOINT LeftFoot
				{
					OFFSET 2.562200 -7.039590 0.000000
					CHANNELS 3 Zrotation Yrotation Xrotation
					JOINT LeftToeBase
					{
						OFFSET 0.157640 -0.433110 2.322550
						CHANNELS 3 Zrotation Yrotation Xrotation
						End Site
						{
							OFFSET 0.000000 0.000000 0.000000
						}
					}
				}
			}
		}
	}
	JOINT RHipJoint
	{
		OFFSET 0.000000 0.000000 0.000000
		CHANNELS 3 Zrotation Yrotation Xrotation
		JOINT RightUpLeg
		{
			OFFSET -1.305520 -1.794630 0.839290
			CHANNELS 3 Zrotation Yrotation Xrotation
			JOINT RightLeg
			{
				OFFSET -2.542530 -6.985550 0.000000
				CHANNELS 3 Zrotation Yrotation Xrotation
				JOINT RightFoot
				{
					OFFSET -2.568260 -7.056230 0.000000
					CHANNELS 3 Zrotation Yrotation Xrotation
					JOINT RightToeBase
					{
						OFFSET -0.164730 -0.452590 2.363150
						CHANNELS 3 Zrotation Yrotation Xrotation
						End Site
						{
							OFFSET 0.000000 0.000000 0.000000
						}
					}
				}
			}
		}
	}
}
MOTION
Frames: 28
Frame Time: 0.008333
2.840688 17.055519 0.375474 24.308257 -88.415395 -16.023466 -10.113061 2.884462 1.931136 -5.441856 12.940891 -20.767019 -2.115532 0.301239 19.825894 1.766407 10.812501 -6.424010 0.233400 0.000001 -47.450900 10.898621 -0.986758 1.562631 0.983617 -8.230052 -15.996412 1.201529 -0.293196 21.347799 -1.578759 -7.103954 -6.594093 -0.488300 -0.000000 -70.384800
2.833126 17.045593 0.379488 19.681554 -87.527109 -11.538981 -10.204523 2.894451 2.072396 -5.432499 12.249238 -20.855919 -2.088165 0.335389 20.197868 1.753747 10.657975 -6.590742 0.195900 0.000001 -47.546800 10.804207 -0.977817 1.440097 0.945287 -8.673270 -15.694739 1.162980 -0.287929 21.567495 -1.684928 -7.643956 -6.839202 -0.479900 -0.000000 -70.298500
2.823734 17.036654 0.383917 16.313153 -86.534927 -8.294471 -10.261534 2.895524 2.231173 -5.414721 11.464342 -20.944039 -2.053420 0.357515 20.533942 1.742545 10.515391 -6.740015 0.164400 -0.000000 -47.609800 10.739080 -0.982645 1.324728 0.929305 -9.151380 -15.375048 1.128389 -0.284497 21.720198 -1.800119 -8.232324 -7.065289 -0.473800 0.000000 -70.178700
2.812368 17.028845 0.388797 13.787634 -85.452401 -5.871099 -10.289553 2.895284 2.411253 -5.394108 10.588854 -21.036738 -2.014453 0.370881 20.827342 1.732879 10.383318 -6.868435 0.139299 -0.000000 -47.637501 10.698029 -0.994527 1.214725 0.930846 -9.666739 -15.040703 1.096126 -0.278796 21.804841 -1.922485 -8.861466 -7.268801 -0.470500 -0.000000 -70.022200
2.799106 17.022370 0.394086 11.867812 -84.284890 -4.033284 -10.292881 2.897567 2.612539 -5.375189 9.626240 -21.127682 -1.973385 0.377235 21.067830 1.724020 10.258139 -6.969931 0.121201 -0.000000 -47.632000 10.677519 -1.009512 1.105891 0.941204 -10.229163 -14.686333 1.065670 -0.268771 21.815924 -2.049490 -9.520412 -7.444504 -0.471000 0.000000 -69.840400
2.783833 17.017365 0.399832 10.388027 -83.034606 -2.612957 -10.275369 2.904139 2.835433 -5.361133 8.584321 -21.219379 -1.932172 0.377243 21.248354 1.714365 10.130566 -7.038891 0.110800 0.000000 -47.597000 10.673974 -1.026663 0.997905 0.956313 -10.842812 -14.313787 1.037121 -0.253059 21.749189 -2.179648 -10.202676 -7.588856 -0.476300 0.000001 -69.632600
2.766471 17.013958 0.406099 9.239691 -81.702380 -1.500084 -10.239668 2.915912 3.078884 -5.354008 7.472475 -21.308936 -1.892516 0.371036 21.359257 1.702075 9.990990 -7.068459 0.108600 -0.000000 -47.539900 10.685166 -1.045791 0.890023 0.971638 -11.512177 -13.921682 1.010777 -0.230879 21.598502 -2.311432 -10.902076 -7.697259 -0.488100 0.000000 -69.400100
2.747329 17.012319 0.412920 8.348221 -80.290095 -0.624929 -10.187425 2.933017 3.339829 -5.355052 6.302854 -21.388271 -1.856046 0.358706 21.388774 1.685139 9.829731 -7.051001 0.115600 0.000000 -47.468600 10.709977 -1.066393 0.780294 0.981710 -12.241472 -13.504285 0.986760 -0.201969 21.357216 -2.443280 -11.612977 -7.764470 -0.508601 0.000000 -69.154000
2.726057 17.012515 0.420526 7.643211 -78.796962 0.090890 -10.120537 2.955580 3.619327 -5.362620 5.084069 -21.463318 -1.823960 0.339696 21.330535 1.661793 9.636916 -6.980897 0.132000 0.000000 -47.394300 10.746300 -1.090502 0.671476 0.989499 -13.029662 -13.066643 0.965852 -0.165467 21.019034 -2.574776 -12.334700 -7.786793 -0.540000 0.000000 -68.883600
2.703269 17.014688 0.428845 7.097167 -77.230130 0.664178 -10.039380 2.983221 3.910980 -5.378454 3.832862 -21.514926 -1.797913 0.313977 21.167652 1.630359 9.406546 -6.849883 0.158200 0.000001 -47.324200 10.794641 -1.116917 0.560852 0.986949 -13.873480 -12.596462 0.947121 -0.121800 20.577874 -2.705012 -13.065992 -7.757544 -0.585600 0.000001 -68.613000
2.678809 17.018841 0.438109 6.667967 -75.590837 1.142548 -9.944949 3.015635 4.215542 -5.400114 2.554327 -21.545485 -1.778497 0.280888 20.893174 1.590143 9.135901 -6.652900 0.194300 -0.000000 -47.270300 10.853771 -1.147371 0.451005 0.977742 -14.768502 -12.098328 0.930928 -0.070509 20.029991 -2.834172 -13.809315 -7.674058 -0.648300 0.000000 -68.327900
2.652962 17.025017 0.448407 6.331805 -73.884902 1.547958 -9.837611 3.052274 4.531328 -5.426863 1.254676 -21.548235 -1.766256 0.239966 20.496471 1.541043 8.827252 -6.383791 0.240100 0.000000 -47.243299 10.923472 -1.182336 0.342984 0.961579 -15.706803 -11.571295 0.916720 -0.011686 19.372740 -2.962520 -14.568326 -7.532111 -0.731800 0.000000 -68.032001
2.626084 17.033161 0.459709 6.076830 -72.123629 1.888321 -9.717889 3.092313 4.853373 -5.459203 -0.053645 -21.510743 -1.762184 0.191223 19.969247 1.482941 8.482880 -6.039395 0.294500 -0.000000 -47.243200 11.003882 -1.221435 0.236683 0.935744 -16.675098 -11.010610 0.903099 0.053905 18.607998 -3.090547 -15.347722 -7.328319 -0.839700 0.000000 -67.739499
2.598365 17.043132 0.472146 5.884695 -70.315009 2.183913 -9.586466 3.134858 5.181345 -5.495070 -1.369466 -21.431896 -1.766115 0.134406 19.308949 1.417078 8.112431 -5.617184 0.356700 0.000000 -47.276900 11.094369 -1.265416 0.134250 0.903300 -17.661793 -10.421676 0.889521 0.125890 17.739504 -3.219000 -16.152403 -7.061826 -0.975800 0.000000 -67.445100
2.570235 17.054763 0.485785 5.741773 -68.470305 2.446431 -9.444217 3.178462 5.513476 -5.532526 -2.690738 -21.309641 -1.777819 0.069709 18.516683 1.344965 7.727194 -5.116704 0.425500 0.000001 -47.346401 11.194280 -1.314385 0.036797 0.866333 -18.653392 -9.808826 0.875236 0.203352 16.774705 -3.348251 -16.985089 -6.732842 -1.143500 -0.000000 -67.148700
2.541945 17.067811 0.500633 5.640259 -66.601615 2.685157 -9.292139 3.221886 5.848435 -5.569385 -4.017045 -21.143938 -1.796889 -0.002474 17.598901 1.268574 7.340961 -4.540193 0.500000 0.000001 -47.451100 11.302944 -1.368431 -0.054645 0.827161 -19.637627 -9.178588 0.859697 0.285227 15.724546 -3.478481 -17.846642 -6.344209 -1.345200 0.000000 -66.847700
2.514010 17.081931 0.516775 5.567752 -64.721832 2.910533 -9.132020 3.263257 6.184264 -5.601616 -5.346410 -20.939069 -1.822620 -0.081207 16.569280 1.189823 6.966295 -3.893224 0.578800 0.000000 -47.585299 11.418856 -1.427583 -0.139825 0.789693 -20.603306 -8.537967 0.842858 0.370262 14.601545 -3.609166 -18.734059 -5.900060 -1.582800 -0.000000 -66.540100
2.486788 17.096762 0.534183 5.517905 -62.844092 3.129428 -8.965640 3.300995 6.519695 -5.625013 -6.679918 -20.700974 -1.854047 -0.165374 15.445677 1.110980 6.617570 -3.183405 0.661400 0.000000 -47.745600 11.540533 -1.491647 -0.218778 0.757082 -21.541251 -7.895144 0.824921 0.457144 13.420708 -3.739400 -19.641354 -5.407267 -1.856701 -0.000000 -66.220700
2.460873 17.111943 0.552827 5.481055 -60.980827 3.348632 -8.795445 3.333291 6.852663 -5.634347 -8.014795 -20.440233 -1.890139 -0.253290 14.253780 1.033757 6.304066 -2.422839 0.746800 -0.000000 -47.922900 11.665805 -1.560435 -0.292486 0.733439 -22.446047 -7.257480 0.806658 0.544543 12.197560 -3.867560 -20.558662 -4.873902 -2.165400 0.000001 -65.883900
2.436697 17.127038 0.572603 5.450947 -59.143676 3.572906 -8.624074 3.358756 7.181041 -5.624628 -9.347291 -20.168911 -1.929770 -0.343047 13.023030 0.959596 6.032236 -1.625860 0.834501 0.000000 -48.109200 11.792374 -1.633677 -0.362192 0.722055 -23.314313 -6.631660 0.789146 0.631253 10.948084 -3.991545 -21.472755 -4.310270 -2.505500 0.000000 -65.518800
2.414768 17.141656 0.593382 5.420317 -57.342221 3.805614 -8.454590 3.376361 7.501835 -5.591016 -10.667991 -19.902328 -1.971953 -0.432224 11.789491 0.888890 5.799418 -0.811093 0.922699 -0.000000 -48.292500 11.917650 -1.711281 -0.429721 0.726388 -24.146991 -6.021206 0.773686 0.716400 9.685226 -4.109050 -22.369887 -3.725306 -2.872299 -0.000000 -65.127100
2.395567 17.155470 0.614886 5.385143 -55.584531 4.045372 -8.289830 3.385556 7.811677 -5.531759 -11.965960 -19.653800 -2.015785 -0.518360 10.588402 0.821672 5.599397 0.002414 1.009200 0.000000 -48.465100 12.039366 -1.792789 -0.497222 0.746917 -24.947022 -5.427224 0.761433 0.799206 8.421425 -4.217686 -23.235346 -3.128662 -3.259700 0.000000 -64.707900
2.379545 17.168153 0.636706 5.344478 -53.878082 4.286513 -8.132298 3.386239 8.107068 -5.447816 -13.229486 -19.433630 -2.060481 -0.599141 9.450840 0.757630 5.423190 0.797382 1.091400 -0.000000 -48.624100 12.155645 -1.877229 -0.566965 0.781160 -25.718080 -4.849148 0.753241 0.878921 7.170048 -4.315375 -24.054545 -2.532167 -3.658800 -0.000000 -64.242900
2.367026 17.179485 0.658340 5.299404 -52.228614 4.520190 -7.984232 3.378910 8.383831 -5.343936 -14.442987 -19.247955 -2.105652 -0.672342 8.405110 0.695763 5.256339 1.556904 1.165700 0.000000 -48.765700 12.265089 -1.963656 -0.641399 0.824114 -26.466192 -4.282232 0.749539 0.955009 5.940863 -4.400318 -24.815383 -1.943777 -4.061600 0.000000 -63.736201
2.358242 17.189321 0.679170 5.253399 -50.641770 4.734699 -7.847382 3.364325 8.638065 -5.227893 -15.592577 -19.096238 -2.151066 -0.736300 7.469979 0.635100 5.085373 2.268438 1.228300 0.000000 -48.890601 12.366832 -2.050617 -0.722754 0.866936 -27.196184 -3.719938 0.750141 1.026941 4.743318 -4.471447 -25.508498 -1.371881 -4.459500 0.000000 -63.187400
2.353421 17.197561 0.698395 5.213567 -49.126323 4.914069 -7.722561 3.343619 8.866221 -5.112901 -16.664065 -18.971757 -2.196989 -0.790028 6.655806 0.574911 4.899665 2.922948 1.276199 -0.000000 -48.993700 12.460690 -2.135536 -0.813045 0.896752 -27.913105 -3.162335 0.754939 1.093150 3.603813 -4.527598 -26.117997 -0.836953 -4.835401 -0.000000 -62.542800
2.352327 17.204288 0.715392 5.185093 -47.686043 5.044825 -7.611182 3.317629 9.065192 -5.008247 -17.650521 -18.856515 -2.243231 -0.833219 5.956588 0.514705 4.693451 3.521838 1.308200 0.000000 -49.096500 12.546407 -2.218088 -0.914053 0.902223 -28.618443 -2.586647 0.761528 1.154477 2.501737 -4.570100 -26.656565 -0.320237 -5.197400 0.000000 -61.912100
2.354895 17.209588 0.729408 5.174506 -46.331881 5.112529 -7.514458 3.287203 9.231214 -4.928947 -18.537313 -18.732566 -2.290357 -0.866145 5.364331 0.453871 4.460603 4.066297 1.322900 -0.000000 -49.199800 12.623745 -2.296666 -1.025331 0.870639 -29.305093 -1.984767 0.767507 1.210100 1.445142 -4.600758 -27.129481 0.175622 -5.542800 0.000000 -61.301300
